<?xml version="1.0" encoding="utf-8"?>
<!-- Generator: Adobe Illustrator 21.1.0, SVG Export Plug-In . SVG Version: 6.00 Build 0)  -->
<svg version="1.0" id="Warstwa_1" xmlns="http://www.w3.org/2000/svg" xmlns:xlink="http://www.w3.org/1999/xlink" x="0px" y="0px"
	 viewBox="0 0 792 792" enable-background="new 0 0 792 792" xml:space="preserve">
<g>
	<path d="M727.8,209.7c17-54,1.8-146.8-0.7-156.1c-3.3-12.5-13.4-6.6-18.3,1.6c-15.4,24.6-68.7,53-111.9,102.1
		c-4.5-12.6-22.1-65-62.4-84.8c-23-11.3-61.6-21.2-102.9-23.9c0-0.1-0.1-0.3-0.1-0.4c-1.1-4.4-3.3-11.7-17.9-12.3
		c-14.6,0.6-16.8,7.9-17.9,12.3c0,0.1-0.1,0.3-0.1,0.4c-41.3,2.7-80,12.6-102.9,23.9c-40.4,19.8-58,72.2-62.4,84.8
		c-55.1-64.6-78.1-48-86.5-45.4c-8.4,2.6-46.1,31.4-75.5,67.5c-6.1,7.5-20.6,29.5-4.4,51.7c2.8,3.3,9.5,9.2,17.3,19.9
		c25.2,34.6,36.2,8.8,33.8-0.1c38.9,79.7,55.1,87.5,75,105.7c-10,22.5-24.2,42-32,53.7c-11.7,17.6-0.6,19.2,5.6,17.8
		c-24.8,38-17.3,72.6-14.3,82c5.1,16.4,21.9-6.9,25.5-13c-1.6,25.5,2.6,46.5,10,56.8c7.3,10.2,14.2,3,17.4-3.2
		c3.2-6.2,9.9-22.4,17.8-26.9c17.5,18.3,60.1,28.2,67.3,31.2c4.9,2.1,16.8,4.8,29.8,11.5l-4,4.9c-6.8-4.2-20.6-7-21.1-5.9
		c-6.2,15.3-8.4,17.3-12.2,35.2c-2.1,10,3.9,19.2,11.5,24.2c0,0,0,0.1,0,0.1c-9.4-1.2-23.5-2.2-35.8-2.2c-41.7,0-53.7,11.1-60.1,22
		c-14.7,26.1-14.5,47.2-12,60.1c0,0,0.1,0,0.1,0c0,0.3,0.2,0.7,0.2,1c0,0.3,0.2,0.7,0.2,1c0.3,1.2,0.7,2.6,1,3.6
		c0.7,2.3,1.6,4.3,2.4,6.4c0.1,0.1,0.1,0.2,0.2,0.3c0.2,0.2,0.2,0.5,0.3,0.7c0.3,0.7,0.7,1.4,1,2c2.7,5.2,6,9.1,9.2,10.6
		c8.3,4.2,19,4.8,27.7,5.4h1c1.2,0.2,2.1,0.2,2.8,0.2c1,0,3.3,0,5.4-1.4c6.9,5,20.6,5.4,24.8,5.4c7.8,0,18.2-1,24.1-6.1
		c2.4,1.7,5.9,2.6,10.7,2.6c8,0,21.1-2.3,26.1-7.4c6.2-6.6,10.5-15.6,12.8-25.5c0-0.2,0.1-0.4,0.1-0.5c0.3-1.3,0.6-3,0.9-4.6
		l1.3-0.1c7.8-0.3,17.3-0.5,26.7-0.7l1.5,0c0.1,0.6,0.3,1.2,0.4,1.8c0.3,1.3,0.7,3.2,1,4.4c11.5,40.1,44.8,52.1,48.8,52.1h0.9
		l0.7-0.2c8.9-2.8,23.1-14.6,32.9-31.7c3.2-5.8,6-12.2,7.8-19c0.6-2.3,1.1-4.4,1.4-6.3l0.9,0c4,0.2,15.9,0.7,21.5,1l1.3,0
		c0.6,6.6,1.8,11.5,2.3,13c3.1,9.8,8.5,18.4,13.3,20.9c7.7,4.2,18.3,5.4,26.2,5.3c5.3,0,9.4-0.6,10.4-1.1c0,0,0.1,0,0.1,0
		c6.9,5,20.4,5.4,24.6,5.4c0,0,0.1,0,0.1,0c7.8,0,18.1-1,24-6c0,0,0,0,0.1-0.1c2.4,1.7,5.9,2.6,10.7,2.6c0,0,0,0,0.1,0
		c8,0,21.1-2.3,26.1-7.4c3.2-3.5,5.8-7.5,7.9-11.8c0-0.1,0.1-0.2,0.1-0.2c0,0.1-0.1,0.2-0.1,0.2l-0.1,0c1.8-3.9,3-8,4-11.9
		c0.1-0.3,0.1-0.6,0.2-0.8c4.5-18.7,2.5-41-3.6-58.2c-5.7-15.8-30.7-24.1-74.1-24.1c-6.8,0-11.3,0-16.7,0.5c-0.2-0.2-1.7,0.2-1.7,0
		c0.3-0.3,0.6-0.6,0.8-1l0,0c5.3-4.5,14.8-14.8,7.8-29.8c-6.5-13.8-5.5-13.2-14.3-27.1c-0.9-1.4-14.4,2.2-18.2,4.6l-3.7-5
		c13.9-7.7,27-10.6,32.2-12.8c7.1-3,49.8-12.9,67.3-31.2c7.9,4.5,14.6,20.7,17.8,26.9c3.2,6.2,10.2,13.4,17.4,3.2
		c7.3-10.3,11.5-31.3,10-56.8c3.6,6.2,20.4,29.4,25.5,13c2.9-9.4,10.5-44-14.3-82c6.2,1.4,17.3-0.2,5.6-17.8
		c-7.8-11.7-22-31.2-32-53.7c19.9-18.3,41-36.7,79.9-116.4C711.4,238.7,648,182.1,727.8,209.7z"/>
	<path fill="#6CCC48" d="M607.2,228.3c-12.1-57.4-28.8-91.3-40.6-120.1c25.4,39.9,43.4,109.6,45.6,122.2
		C610.1,229.5,608.9,229,607.2,228.3z M418,735.8c-0.4,0.3-0.8,0.5-1.2,0.8c-0.3,0.2-0.5,0.3-0.8,0.5c-0.4,0.3-0.9,0.5-1.3,0.7
		c-0.2,0.1-0.4,0.2-0.7,0.3c-0.6,0.3-1.3,0.6-1.9,0.9c-0.8-0.2-1.7-0.5-2.5-0.8c-0.1,0-0.2-0.1-0.3-0.1c-0.8-0.3-1.6-0.6-2.4-1
		c-0.1-0.1-0.2-0.1-0.4-0.2c-0.8-0.4-1.5-0.8-2.3-1.3c-0.1-0.1-0.3-0.2-0.4-0.2c-0.8-0.5-1.5-1-2.2-1.5c-0.1-0.1-0.2-0.2-0.3-0.2
		c-0.8-0.6-1.5-1.2-2.2-1.8c-0.1-0.1-0.1-0.1-0.2-0.2c-1.6-1.3-3.1-2.8-4.5-4.4c0,0-0.1-0.1-0.1-0.1c-0.7-0.8-1.4-1.6-2.1-2.4
		c-0.1-0.1-0.1-0.2-0.2-0.2c-0.7-0.8-1.3-1.7-2-2.5c-0.1-0.1-0.1-0.2-0.2-0.2c-0.6-0.9-1.3-1.8-1.9-2.7c0-0.1-0.1-0.1-0.1-0.2
		c-2.6-3.9-4.8-8-6.6-12.2l0,0c-0.4-1-0.9-2.1-1.3-3.1c0,0,0,0,0,0c-0.4-1-0.7-2.1-1.1-3.1c0,0,0,0,0,0c-0.2-0.7-0.4-1.4-0.6-2.1
		c0-0.1-0.1-0.2-0.1-0.3c-0.2-0.7-0.4-1.4-0.5-2.1c13.2-4.5,15.6-21.8,15.6-21.8h33.4c0,0,0.2,14.7,15.2,19.6
		c-0.3,1.7-0.6,3.3-0.9,4.9c-0.3,1.6-0.7,3.1-1.1,4.5c-0.2,0.7-0.4,1.5-0.7,2.2c-0.2,0.6-0.4,1.3-0.6,1.9c-0.2,0.7-0.5,1.4-0.8,2.1
		c-0.2,0.6-0.4,1.2-0.7,1.8c-0.3,0.7-0.6,1.3-0.8,2c-0.2,0.5-0.5,1.1-0.7,1.6c-0.3,0.6-0.6,1.2-0.9,1.8c-0.3,0.5-0.5,1-0.8,1.5
		c-0.3,0.6-0.6,1.1-1,1.7c-0.3,0.5-0.6,0.9-0.9,1.4c-0.3,0.5-0.7,1-1,1.5c-0.3,0.5-0.6,0.9-0.9,1.3c-0.3,0.5-0.7,0.9-1,1.4
		c-0.4,0.5-0.8,1-1.3,1.5c-0.5,0.6-1,1.2-1.6,1.8c-0.4,0.4-0.8,0.8-1.1,1.2c-0.3,0.3-0.6,0.6-1,1c-0.4,0.4-0.7,0.7-1.1,1.1
		c-0.3,0.3-0.6,0.6-1,0.8c-0.4,0.3-0.8,0.6-1.1,0.9c-0.3,0.3-0.6,0.5-0.9,0.7c-0.4,0.3-0.8,0.6-1.2,0.8
		C418.6,735.4,418.3,735.6,418,735.8z M395.4,693.6l7.8,2.2l0.4-1.4c0.8-3.1,3.7-5.8,6.1-3.9c-0.2,0.2-1.3,1.8-1.9,2.7
		c-0.2,0.3-0.1,0.7,0.3,0.8l11,3.4c0.3,0.1,0.7-0.1,0.7-0.5l0.4-11.2c0-0.4-0.4-0.7-0.7-0.5c-1.3,0.4-3.7,1.3-3.9,1.4
		c0,0-0.2-0.3-0.2-0.4c-2.3-3.4-6.8-6.2-11.3-4.1c-3.4,1.6-6.5,5.5-8.1,10L395.4,693.6z M408.4,718.3l-1.3-7.6c0,0-2.1,0.3-2.5,0.3
		c-1.9,0.1-5.4-0.5-5.7-3.9c0.3,0.2,2.2,0.8,3.4,1.2c0.4,0.1,0.8-0.2,0.7-0.7l-3.4-11.5c-0.1-0.3-0.5-0.5-0.8-0.3l-9.2,5.6
		c-0.3,0.2-0.4,0.7-0.1,0.9c0.9,0.8,2.7,2.1,3.3,2.4c0,0.3-2,6.8-0.1,9.8c2,3.2,6.9,4.1,11,4.1C405,718.8,408.4,718.3,408.4,718.3z
		 M418,716c2.6,0.7,8.2,2.1,11.2-3.2c2-3.6,1.2-8.4,0.5-12.2c-0.1-0.6-0.7-3-0.7-3l-7.5,3.6c0,0,2.7,7.6-1.7,8.3c0,0,0,0,0,0
		c-0.2-0.7,0-2.4,0.1-3.5c0-0.4-0.4-0.7-0.8-0.5l-10.1,4.9c-0.3,0.1-0.4,0.5-0.2,0.8l6.3,8.8c0.2,0.3,0.6,0.3,0.9,0
		C416.5,719.3,417.6,717.8,418,716z M223.9,226.4c17.2-69,32.3-99.4,37.1-108.9c3.9-7.5,13-26.2,29.7-36.6
		c5.6-3.5,18.1-10.1,44.9-17.2c23.6-6.3,51.2-10.9,77.9-11.2c26.7,0.3,54.3,4.9,77.9,11.2c26.8,7.1,39.2,13.7,44.9,17.2
		c16.8,10.4,25.9,29.1,29.7,36.6c4.9,9.5,19.9,39.9,37.1,108.9c-40.2-19-74.7-28.9-81.5-31.4c-4.3-1.6-48.5-20.9-108.1-20.1
		c-59.6-0.8-103.8,18.5-108.1,20.1C298.6,197.6,264.1,207.4,223.9,226.4z M413.5,172.9L413.5,172.9L413.5,172.9
		c63.5-24.1,60.3-83,60.3-93.1c-7.3-1.5-13.3-2.1-14-13.2c-13.7-6.3-33.6-8.1-42.2-8.7c-2.3-0.1-3.7-0.1-4.1-0.1
		c-0.4,0-1.9,0-4.1,0.1c-8.6,0.5-28.5,2.4-42.2,8.7c-0.7,11.2-6.7,11.7-14,13.2C353.1,89.9,350,148.8,413.5,172.9z M375,119.5
		c-5.2-12.9-5.7-24.8-5.7-30.1c5.2-1.3,9.8-3.8,10.7-11.8c10.3-4.3,24.4-5.6,30.9-5.9c0,0,2-0.1,2.6-0.1s2.6,0.1,2.6,0.1
		c6.4,0.4,20.6,1.6,30.9,5.9c0.9,8,5.6,10.4,10.7,11.8c0,2.8-0.2,7.5-1.1,13.2c-0.3,1.6-0.6,3.3-1,5.1c-0.8,3.7-2,7.7-3.7,11.8
		c-6.7,16.7-18.8,29.1-35.9,36.9l-2.6,1.1h0h0l-2.6-1.1C393.7,148.7,381.7,136.3,375,119.5z M437.4,120.8c-0.5-0.9-1.7-4.2-5.8-8
		c-13.6-12.4-23.5-3.1-25.8-0.8c-5.3,4.9-7.1,10.5-7.7,14.7c-0.3,1.3,0.1,16,16.9,9.9c6.4-2.5,8.9-2.3,12.8-2.2
		C440.8,134.5,439,123.9,437.4,120.8z M427.9,107c3.5,2.8,10.4,2.1,15.1-2.3c4.6-4.4,5.2-10.9,1.6-13.7c-3.5-2.8-10.5-1.9-15.1,2.5
		C424.9,97.9,424.3,104.1,427.9,107z M400.4,93.3c1.3,6.7,7.8,11.6,13.1,10.8c5.3-0.8,9-6.9,7.8-13.6c-1.3-6.7-7-11.5-12.3-10.7
		C403.6,80.6,399.1,86.6,400.4,93.3z M385.5,113.2c6.1,3.1,13.5,2.2,16-1.6c2.5-3.7-0.1-10-6.2-13.1c-6.1-3.1-13.3-1.9-15.8,1.8
		C377,104,379.4,110,385.5,113.2z M219.8,228.3c12.1-57.4,28.8-91.3,40.6-120.1c-25.4,39.9-43.4,109.6-45.6,122.2
		C216.8,229.5,218,229,219.8,228.3z M613.9,268.3c5.8-1.8,10.8-9.6,11-14.3c0.4-7.6-2.6-11.8-9-16.1c-4.8-3.3-45.4-20.4-52.9-23
		c4.2,2.3,29.5,17.3,29.8,18.4c-12.5-3.7-85.2-53.3-179.4-51.9c-94.2-1.4-166.9,48.2-179.4,51.9c0.3-1.1,25.6-16.2,29.8-18.4
		c-7.4,2.6-48,19.7-52.9,23c-6.4,4.4-9.4,8.5-9,16.1c0.2,4.7,5.2,12.5,11,14.3c3.4,1.1,7.4-2.3,11.9-5.3
		c53.1-36.3,125.5-61.9,188.6-62.7c63.1,0.8,135.5,26.4,188.6,62.7C606.5,266,610.5,269.3,613.9,268.3z M425.9,48.4
		c-2-8.2-12.4-8.2-12.4-8.2s-10.5,0-12.4,8.2c4.1-0.2,8.3-0.3,12.4-0.4C417.6,48,421.8,48.2,425.9,48.4z M253.5,252.1
		c17.3-6.1,93.8-30.4,160-30.2c66.1-0.2,142.7,24.1,160,30.2c-9.6-5.3-77.7-42.5-160-45.1C331.2,209.7,263.1,246.9,253.5,252.1z
		 M488.9,657.8c0.2-0.3,0.3-0.7,0.3-0.9c0.2-0.5,0.5-1,0.9-1.7c0.2-0.5,0.5-1,0.7-1.6c0.3-0.5,0.5-1,0.9-1.7c0.3-0.5,0.5-1,0.9-1.7
		c0.5-1,1.2-2.3,1.9-3.5c0.3-0.5,0.2-0.4,0.5-0.9c-14.9,6.2-25,12.4-56.3,13.2c-0.9,4.4-0.1,7,0.5,10.2c0.3,1.4,1.2,4.2,1.9,5.5
		c2.1,4,4.7,8,13.5,9.5l4.5,0.8c0,0,0,2.7-0.3,6.4c4,0.2,15.9,0.7,21.6,1c0.1,0,0.4,0,0.7,0c0.1-9.7,1.6-19.8,6.7-32.4
		C488.2,659.4,488.5,658.5,488.9,657.8z M381.7,662.2l0.1-3.8c-22.9-1.9-38.5-7-53.5-14.1c6.9,7.2,7.4,39.3,6.8,46.2
		c0,0,0,0.1,0,0.2c0,0,0,0,0,0c0,0.1,0,0.2,0,0.3c0,0,0,0,0,0c8.7-0.3,18.4-0.6,26.9-0.7c-0.3-1.2-0.5-2-0.5-2l4.1-1.4
		C376,682.9,381,675.3,381.7,662.2z"/>
	<path fill="#C87A54" d="M344.8,379.8c0-23.1-18.8-41.9-41.9-41.9c-23.1,0-41.9,18.8-41.9,41.9c0,13,5.9,25,16.1,33
		c4.1,0.3,8.3,0.5,12.5,0.5c13.6,0,26.3-1.8,37.9-5.2l0.9-0.3c1.7-0.5,4.9-1.4,8.2-3C341.9,397.6,344.8,388.9,344.8,379.8z
		 M303.1,409.5c-16.6,0-29.8-13.5-30.1-30.1c-0.1-5.4,1-10,2.8-13.7c-0.4-1.2-0.6-2.6-0.6-3.9c0-7.1,5.8-12.9,12.9-12.9
		c2.4,0,4.6,0.7,6.5,1.8c3.2-0.9,6.2-1.4,8.5-1.4c16.8,0,30.1,13.5,30.1,30.1C333.2,396,319.7,409.5,303.1,409.5z M524.1,337.9
		c-23.1,0-41.9,18.8-41.9,41.9c0,9.1,2.9,17.8,8.3,25c3.3,1.6,6.4,2.5,8.2,3l0.9,0.3c11.6,3.5,24.3,5.2,37.9,5.2
		c4.2,0,8.4-0.2,12.5-0.5c10.2-8,16.1-20,16.1-33C566,356.7,547.2,337.9,524.1,337.9z M523.9,409.5c-16.6,0-30.1-13.5-30.1-30.1
		c0-5,1.3-9.9,3.6-14.2c-0.3-1.1-0.5-2.2-0.5-3.4c0-7.1,5.8-12.9,12.9-12.9c2.2,0,4.2,0.6,6,1.5c2.6-0.7,5.2-1.1,8.1-1.1
		c16.6,0,30.1,13.5,30.1,30.1C554,396,540.5,409.5,523.9,409.5z"/>
	<path fill="#FFFFFF" d="M652.9,450.9c0,0,12.2,8.1,18.9,12.4c6.3,23.3-0.5,44.9-0.7,45.9c-4.9-2.3-20.7-20.9-23.1-24.9l-0.2-11.4
		l15,8.5L652.9,450.9z M509.7,374.6c7.1,0,12.9-5.8,12.9-12.9c0-3.9-1.7-7.3-4.4-9.7c-0.7-0.6-1.6-1.2-2.4-1.7c-1.8-1-3.9-1.5-6-1.5
		c-7.1,0-12.9,5.8-12.9,12.9c0,1.2,0.2,2.3,0.5,3.4c0.3,1,0.6,1.9,1.1,2.7C500.6,371.9,504.9,374.6,509.7,374.6z M631.8,496.1
		c0.8,10.1,1.8,25.3,2.4,30.3c-2-1.7-12-10.1-12-10.1l-0.8,15.5v0c0.5,0.7,1,1.5,1.5,2.2c0,0.1,0.1,0.1,0.1,0.2
		c0.5,0.7,0.9,1.5,1.4,2.2c0,0,0,0.1,0.1,0.1c1.1,1.8,2.2,3.8,3.4,5.7c0.1,0.2,0.3,0.5,0.4,0.7c0.3,0.5,0.7,1.1,1,1.7
		c0.3,0.4,0.5,0.9,0.8,1.3c0.3,0.4,0.5,0.9,0.8,1.3c0.3,0.5,0.7,1.1,1.1,1.7c0.2,0.3,0.4,0.7,0.7,1c0.6,0.9,1.2,1.8,1.9,2.7
		c0.3-0.2,0.6-0.4,0.9-0.6c0.1-0.1,0.2-0.1,0.2-0.2c0.3-0.2,0.5-0.5,0.8-0.8c0,0,0.1-0.1,0.1-0.1c0.3-0.3,0.6-0.7,0.9-1.1
		c0.1-0.1,0.1-0.2,0.2-0.3c0.2-0.4,0.5-0.8,0.7-1.2c0.1-0.1,0.1-0.2,0.2-0.3c0.3-0.5,0.6-1.1,0.8-1.6c0.1-0.1,0.1-0.2,0.2-0.3
		c0.2-0.5,0.5-1.1,0.7-1.6c0.1-0.1,0.1-0.2,0.2-0.4c0.3-0.7,0.5-1.4,0.8-2.1c0-0.1,0-0.1,0.1-0.2c0.2-0.7,0.5-1.4,0.7-2.2
		c0-0.1,0.1-0.3,0.1-0.4c0.5-1.7,1-3.5,1.5-5.4c0-0.1,0.1-0.3,0.1-0.4c0.5-2,0.9-4.1,1.3-6.3c0-0.1,0-0.2,0.1-0.3
		c0.4-2.3,0.8-4.6,1.1-7.1c0-0.1,0-0.1,0-0.2c0.2-1.2,0.3-2.5,0.5-3.7c0,0,0-0.1,0-0.1c0.2-1.3,0.3-2.7,0.4-4v0
		C644.5,509,635.7,500,631.8,496.1z M404.5,711c-1.9,0.1-5.4-0.5-5.7-3.9c0.3,0.2,2.2,0.8,3.4,1.2c0.4,0.1,0.8-0.2,0.7-0.7
		l-3.4-11.5c-0.1-0.3-0.5-0.5-0.8-0.3l-9.2,5.6c-0.3,0.2-0.4,0.7-0.1,0.9c0.9,0.8,2.7,2.1,3.3,2.4c0,0.3-2,6.8-0.1,9.8
		c2,3.2,6.9,4.1,11,4.1c1.4,0,4.8-0.4,4.8-0.4l-1.3-7.6C407.1,710.7,405,711,404.5,711z M429.2,712.8c2-3.6,1.2-8.4,0.5-12.2
		c-0.1-0.6-0.7-3-0.7-3l-7.5,3.6c0,0,2.7,7.6-1.7,8.3c0,0,0,0,0,0c-0.2-0.7,0-2.4,0.1-3.5c0-0.4-0.4-0.7-0.8-0.5l-10.1,4.9
		c-0.3,0.1-0.4,0.5-0.2,0.8l6.3,8.8c0.2,0.3,0.6,0.3,0.9,0c0.6-0.7,1.7-2.2,2.2-4C420.7,716.7,426.3,718.1,429.2,712.8z
		 M403.6,694.5c0.8-3.1,3.7-5.8,6.1-3.9c-0.2,0.2-1.3,1.8-1.9,2.7c-0.2,0.3-0.1,0.7,0.3,0.8l11,3.4c0.3,0.1,0.7-0.1,0.7-0.5
		l0.4-11.2c0-0.4-0.4-0.7-0.7-0.5c-1.3,0.4-3.7,1.3-3.9,1.4c0,0-0.2-0.3-0.2-0.4c-2.3-3.4-6.8-6.2-11.3-4.1c-3.4,1.6-6.5,5.5-8.1,10
		l-0.5,1.4l7.8,2.2L403.6,694.5z M401.5,111.6c2.5-3.7-0.1-10-6.2-13.1c-6.1-3.1-13.3-1.9-15.8,1.8c-2.5,3.7-0.1,9.7,5.9,12.9
		S399,115.3,401.5,111.6z M442.9,104.7c4.6-4.4,5.2-10.9,1.6-13.7c-3.5-2.8-10.5-1.9-15.1,2.5c-4.6,4.4-5.1,10.6-1.6,13.5
		C431.4,109.8,438.3,109.1,442.9,104.7z M179.1,472.9l-15,8.5l9.9-30.5c0,0-12.2,8.1-18.9,12.4c0,0,0,0,0,0
		c-1.2,6.3-2,12.8-2.2,19.4c0,0.2,0,0.4,0,0.6c0,0.7,0,1.4,0,2.1c0,0.3,0,0.6,0,1c0,0.6,0,1.3,0,1.9c0,0.4,0,0.8,0,1.2
		c0,0.6,0.1,1.2,0.1,1.7c0,0.5,0.1,0.9,0.1,1.4c0,0.5,0.1,1.1,0.1,1.6c0,0.5,0.1,1,0.1,1.5c0.1,0.5,0.1,1,0.2,1.5
		c0.1,0.5,0.1,1.1,0.2,1.6c0.1,0.5,0.1,1,0.2,1.4c0.1,0.6,0.2,1.2,0.3,1.7c0.1,0.4,0.1,0.9,0.2,1.3c0.1,0.7,0.3,1.3,0.4,2
		c0.1,0.4,0.1,0.7,0.2,1.1c0.2,1,0.5,2,0.7,3c4.9-2.3,20.7-20.9,23.1-24.9L179.1,472.9z M484.4,403.7c-4.3-7.2-6.6-15.3-6.6-23.8
		c0-25.5,19.1-47,46.3-46.9c27,0.1,47.2,20.9,47.2,46.5c0,13.5-5.3,26.3-15.3,35.1c5.5-0.6,7.9-1.3,9-1.6c14.8-4.2,16.9-9.1,20-16.5
		l0.5-1.2c0.8-2,4.7-14.3,5-18.7c0.5-8.2-0.1-17.9-2.8-26.3c-1.4-4.4-10.8-35.6-46.9-39.4c-1.6-0.2-4.1-0.4-6.9-0.4
		c-10.6,0-28.9,2.4-41.9,16.7c-2.9,3.2-12.1,13.8-16.3,32.4c-0.6,2.6-0.9,5.2-1,7.8c-0.5,14.9,2.3,25.6,2.4,25.8
		C478.3,397.8,481.2,401.2,484.4,403.7z M192.7,526.4c0.6-5,1.6-20.2,2.4-30.3c-3.9,3.8-12.7,12.9-15.3,15.5v0c0,0,0,0,0,0
		c0.1,1.4,0.3,2.7,0.4,4c0,0,0,0.1,0,0.1c0.1,1.3,0.3,2.5,0.5,3.7c0,0.1,0,0.1,0,0.2c0,0,0,0,0,0l0,0h0c0.3,2.5,0.7,4.8,1.1,7.1
		c0,0.1,0,0.2,0.1,0.3c0.4,2.2,0.8,4.3,1.3,6.3c0,0.1,0.1,0.3,0.1,0.4c0.5,1.9,1,3.7,1.5,5.4c0,0.1,0.1,0.3,0.1,0.4
		c0.2,0.8,0.5,1.5,0.7,2.2c0,0.1,0,0.1,0.1,0.2c0,0,0,0,0,0c0.3,0.8,0.5,1.5,0.8,2.1c0,0.1,0.1,0.2,0.1,0.4c0.2,0.6,0.5,1.1,0.7,1.6
		c0.1,0.1,0.1,0.2,0.2,0.3c0.3,0.6,0.6,1.1,0.8,1.6c0.1,0.1,0.1,0.2,0.2,0.3c0.2,0.4,0.5,0.8,0.7,1.2c0.1,0.1,0.1,0.2,0.2,0.3
		c0.3,0.4,0.6,0.8,0.9,1.1c0,0,0.1,0.1,0.1,0.1c0.3,0.3,0.5,0.5,0.8,0.8c0.1,0.1,0.2,0.1,0.2,0.2c0.3,0.2,0.6,0.4,0.9,0.6
		c0.6-0.9,1.3-1.8,1.9-2.7c0.2-0.3,0.4-0.7,0.7-1c0.4-0.6,0.7-1.1,1.1-1.7c0.3-0.4,0.5-0.9,0.8-1.3c0.3-0.4,0.5-0.9,0.8-1.3
		c0.3-0.6,0.7-1.1,1-1.6c0.2-0.3,0.3-0.5,0.5-0.8c1.2-2,2.3-3.9,3.4-5.8c0,0,0-0.1,0-0.1c0.5-0.8,0.9-1.5,1.4-2.2c0,0,0,0,0-0.1
		c0,0,0.1-0.1,0.1-0.1c0.5-0.8,1-1.5,1.5-2.2v0l-0.8-15.5C204.7,516.3,194.8,524.7,192.7,526.4z M431.5,112.8
		c-13.6-12.4-23.5-3.1-25.8-0.8c-5.3,4.9-7.1,10.5-7.7,14.7c-0.3,1.3,0.1,16,16.9,9.9c6.4-2.5,8.9-2.3,12.8-2.2
		c13,0.2,11.2-10.5,9.6-13.5C436.9,119.9,435.7,116.6,431.5,112.8z M413.5,104.1c5.3-0.8,9-6.9,7.8-13.6c-1.3-6.7-7-11.5-12.3-10.7
		c-5.3,0.8-9.8,6.8-8.5,13.5C401.6,100,408.1,104.9,413.5,104.1z M256.5,379.8c0-25.5,20.8-46.3,46.3-46.3c25.5,0,46.5,19,46.3,46.3
		c0,8.5-2.3,16.7-6.6,23.8c3.2-2.5,6.1-5.9,7.4-10.6c1.8-6.5,3.9-20.6,1.4-33.6c-3.6-18.8-13.4-29.2-16.3-32.4
		c-13-14.2-31.2-16.7-41.9-16.7c-2.8,0-5.3,0.3-6.9,0.4c-36.1,3.9-45.5,35.1-46.9,39.4c-2.7,8.4-3.3,18.1-2.8,26.3
		c0.3,4.4,1.2,8.6,2.6,12.8c0.7,1.9,1.5,3.9,2.3,5.9l0.5,1.2c3.1,7.4,5.1,12.3,20,16.5c1.1,0.3,4.7,1.1,10.3,1.7
		C262.2,405.8,256.5,393.3,256.5,379.8z M288,374.6c7.1,0,12.9-5.8,12.9-12.9c0-3.8-1.6-7.2-4.2-9.5c-0.7-0.6-1.4-1.1-2.2-1.6
		c-1.9-1.1-4.1-1.8-6.5-1.8c-7.1,0-12.9,5.8-12.9,12.9c0,1.4,0.2,2.7,0.6,3.9c0.4,1.1,0.8,2.2,1.5,3.1
		C279.6,372.3,283.5,374.6,288,374.6z"/>
	<path fill="#C2C4C3" d="M161.4,122.9c-0.1,4.6-18.3,57.5-50.5,110.5c-1.4,2.4-3.1,3.2-2.4,15.7c3.6,10.5-2.2,19.5-11.5,12.6
		c-3.6-2.7-10.3-10.6-12.8-14.7c-6.4-10.5-15.6-18.3-17.9-22.2c-9.3-15.8,0.4-31.6,3.3-35.8c2.9-4.2,37.6-45.2,62.6-63.9
		c3.7-2.8,14.7-11.9,28.5-10.7c2.1,0.2,8.6-0.3,19.5,6c10.9,6.3,25.3,19.6,47.1,44.5c0,0-12.1,35.7-12.8,42.2
		c-4.6-11.1-23-50.9-52.8-78.5C162,127,162.2,122.5,161.4,122.9z M421.4,652.7c4-1.3,4.8-5.4,4.8-9.2c0.1-6.6-0.3-13.3-0.8-19.9
		c-0.3-3.6-1.1-4.2-4.1-4.2c-0.4,0-0.8,0-1.3,0c-0.1,0.1-0.3,0.1-0.4,0c-2.4,0-14.2,0-16.6,0c-3,0-3.9,0.6-4.1,4.2
		c-0.5,6.6-0.9,13.2-0.8,19.9c0,3.8,0.7,7.9,4.8,9.2C405,653.4,419.1,653.4,421.4,652.7z M364.3,122.1c-6.8-16.7-7.1-32.5-7-39.6
		c6.2-1.3,12.5-3.6,13.8-13.8c12.7-5.2,30.2-6.9,38.3-7.4c0,0,3.1-0.1,4.1-0.1h0h0c1,0,4.1,0.1,4.1,0.1c8.2,0.5,25.7,2.2,38.3,7.4
		c1.3,10.2,7.6,12.4,13.8,13.8c0,7.1-0.2,22.9-7,39.6c-8.3,20.4-23.4,35.5-45.1,45.2l-4.1,1.7h0h0l-4.1-1.7
		C387.7,157.7,372.5,142.5,364.3,122.1z M413.5,161.2L413.5,161.2L413.5,161.2c48.7-19.4,48-66.2,48-74.2
		c-5.8-1.2-10.6-2.8-11.1-11.7c-11.3-5.2-27.7-6.6-34.2-6.9c-1.4-0.1-2.3-0.1-2.7-0.1c-0.3,0-1.3,0-2.7,0.1
		c-6.5,0.4-23,1.8-34.2,6.9c-0.5,8.9-5.3,10.5-11.1,11.7C365.4,95,364.8,141.8,413.5,161.2z M532.8,632.3c-1.1,0.1-2.1,0.3-3.1,0.5
		c-0.2,0-0.4,0.1-0.7,0.1c-0.8,0.1-1.6,0.3-2.3,0.4c-0.3,0-0.5,0.1-0.8,0.2c-0.9,0.2-1.7,0.4-2.5,0.6c0,0-0.1,0-0.1,0
		c-0.9,0.2-1.7,0.4-2.5,0.7c-0.2,0.1-0.4,0.1-0.6,0.2c-0.6,0.2-1.2,0.4-1.8,0.6c-0.2,0.1-0.3,0.1-0.5,0.2c-0.7,0.3-1.5,0.5-2.1,0.8
		c0,0,0,0-0.1,0c-0.7,0.3-1.3,0.5-1.9,0.8c-0.1,0.1-0.3,0.1-0.4,0.2c-0.5,0.2-1,0.5-1.5,0.7c-0.1,0-0.2,0.1-0.3,0.1
		c-0.6,0.3-1.1,0.6-1.7,0.9c-0.1,0-0.1,0.1-0.2,0.1c-0.5,0.3-0.9,0.6-1.3,0.9c-0.1,0.1-0.2,0.1-0.3,0.2c-0.5,0.3-0.9,0.6-1.3,1
		c0,0,0,0,0,0c-3.5,2.7-5.7,5.6-7.4,8.6c-12.1,21.4-13.9,39.6-11.9,53.1c0,0.1,0,0.2,0,0.2c0.1,0.9,0.3,1.7,0.5,2.6
		c0,0.1,0,0.2,0.1,0.3c0.2,0.8,0.3,1.6,0.5,2.4c0,0.1,0.1,0.2,0.1,0.3c0.2,0.8,0.4,1.5,0.6,2.3c0,0.1,0,0.1,0.1,0.2
		c0.2,0.8,0.5,1.6,0.7,2.3c0,0,0,0,0,0c1.1,3.1,2.3,5.7,3.6,7.9c0,0.1,0.1,0.1,0.1,0.1c0.3,0.5,0.5,0.9,0.8,1.3
		c0.1,0.1,0.1,0.2,0.2,0.3c0.2,0.4,0.5,0.7,0.7,1c0.1,0.1,0.2,0.2,0.3,0.4c0.2,0.3,0.4,0.6,0.6,0.8c0.1,0.1,0.2,0.2,0.3,0.3
		c0.2,0.2,0.4,0.4,0.6,0.6c0.1,0.1,0.2,0.2,0.3,0.3c0.2,0.2,0.4,0.4,0.5,0.5c0.1,0.1,0.2,0.2,0.3,0.3c0.2,0.2,0.3,0.3,0.5,0.4
		c0.1,0.1,0.2,0.1,0.2,0.2c0.2,0.2,0.4,0.3,0.6,0.4c7.4,3.8,18,4.3,26.3,4.8c5.5,0.3,4-0.3,2.4-7.1c-1.7-7.3-8.3-58,15.9-91.2
		c-10.6,29.6-17.7,75.5-8.8,96.4c2.9,6.9,40.7,9.3,45-1.4c9.2-22.3,6.9-76.2,1-93.5c17.3,18,10.7,77.4,4.8,93
		c-2.6,7.3,23.5,3.8,28.6-1.4c17.7-18.3,15.8-55,7.8-77.4c-2.3-6.2-12.3-19.9-68.6-19.9c-1.5,0-2.9,0-4.3,0c-0.4,0-0.8,0-1.2,0
		c-1.1,0-2.1,0.1-3.1,0.1c-0.3,0-0.7,0-1,0c-1.3,0.1-2.6,0.1-3.8,0.2c-0.2,0-0.4,0-0.6,0c-1,0.1-2,0.2-3,0.3c-0.3,0-0.7,0.1-1,0.1
		c-0.9,0.1-1.8,0.2-2.7,0.3C533.3,632.2,533,632.2,532.8,632.3z M717.3,60.4c-0.2-1.5,15.6,66.6,7.8,140.7
		c9.3-18.1,8.1-104.8-1.2-143.2c-0.9-3.8-2.7-9-7.8-4.4c-2.2,2-5.8,10.1-9.5,13.7c-17.5,17.3-88.7,71.1-107.1,97.6
		c0,0,12.1,35.7,12.8,42.2C642.5,137.3,702.4,87.6,717.3,60.4z M669,314.4c-7.7,12.1-31.2,33.8-34.5,35.8
		c-2.9-4.7-8.2-19.8-9.6-22.2c3,33.7,33.9,79.3,43.7,94c-5.5,1.2-12.9-1.2-16.1-3.8c7.9,10.8,14.3,23.5,18.1,39.4
		c-6.8-4.4-24-15.3-24-15.3l10.1,31l-12.4-6.5l-0.4,18.2c0,0,3,3.9,4.2,5.5c0,6.4-0.1,9.8-0.5,15.6c-3.9-4-20.3-20.3-20.3-20.3
		s2.3,28.1,2.6,31.6c-3.2-2.7-10.2-8.1-10.2-8.1l-1.8,17.3c-2.5-3-3.7-4.5-7.1-6.2c3.8-3.5,6.8-7.9,8.1-12.2
		c-22.8,24.9-57.2,33.3-64.8,35.7c-33.6,10.1-49.5,16.9-62.2,29.1c-2,1.9-16.8,15.5-29.3,22c-12.5,6.5-32.2,10.5-49,10.3
		c-16.8,0.1-36.5-3.8-49-10.3c-12.6-6.6-27.3-20.1-29.3-22c-12.7-12.2-28.6-19-62.2-29.1c-7.7-2.3-42-10.7-64.8-35.7
		c1.3,4.2,5,9.2,8.7,12.8c-3.4,1.7-5.6,3.6-8.1,6.6l-1.1-18.3c0,0-7.7,6.6-10.8,9.3c0.3-3.5,2.7-31.5,2.7-31.5s-16,15.4-20,19.4
		c-0.4-5.8-0.6-10.2-0.6-16.6c1.2-1.6,4.2-4.6,4.2-4.6l-0.1-18.2l-12.7,6.7l10.2-31.9c0,0-17.4,11.5-24.2,15.9
		c3.7-15.9,10.2-28.9,18.1-39.6c-3.2,2.6-8.5,4.8-16.1,3.8c9.8-14.7,40.7-60.2,43.7-94c-1.5,2.4-6.7,17.5-9.6,22.2
		c-3.2-1.9-26.8-23.6-34.5-35.8c18.6,17.4,39.3,17.7,47,5.1c8.2-13.3,6.9-37.8-15.2-65.5c3.3,1.6,5.2,2.1,8.3,2.3
		c0,2.6,2.1,9.4,8.5,14.2c7.2,5.4,11.5,4.2,25.8-6c31.7-15,126.2-37.7,181-36.4h0.3c23-0.5,53,3.1,82.4,8.7
		C466.2,272,456.5,342.8,456.5,372c0,8.4,1.2,16.8,3.6,24.8c-20.9-7.4-40.5-7.8-46.4-7.8l-0.2,0l-0.2,0c-13.1-0.2-73.3,1.9-99.8,58
		c-0.4,0.9-1.8,4.6-1.8,4.6c18.2-31.9,55.1-56.1,100.1-56.8c0.8,0,1.4,0,1.7,0c0.4,0,1,0,1.8,0c33.3,0.5,60.9,10.7,79.9,29.7
		c8,8,17.1,24.1,19.7,29.9c0,0-0.3-6.5-2.9-11.3c7.5,0.6,15.7,0.6,23.7,0.6c0.7,0,1.4,0,2,0c31,0,52.4-7.6,65.2-23.3
		c10.3-12.6,15.1-30.3,15.1-55.9c0-21.6-6-65-22.4-99.4c13.6,9.6,17.9,10.6,24.9,5.4c6.4-4.8,8.5-11.6,8.5-14.2
		c3.1-0.2,5-0.7,8.3-2.3c-22.2,27.7-23.4,52.2-15.2,65.5C629.7,332.1,650.4,331.8,669,314.4z M491.6,488.2c-1.7,0-3,1.4-3,3
		c0,1.7,1.4,3,3,3c1.7,0,3-1.4,3-3C494.7,489.5,493.3,488.2,491.6,488.2z M487,465.8c0,1.7,1.4,3,3,3c1.7,0,3-1.4,3-3
		c0-1.7-1.4-3-3-3C488.4,462.8,487,464.2,487,465.8z M333.8,465.8c0,1.7,1.4,3,3,3s3-1.4,3-3c0-1.7-1.4-3-3-3
		S333.8,464.2,333.8,465.8z M332.3,491.2c0,1.7,1.4,3,3,3c1.7,0,3-1.4,3-3c0-1.7-1.4-3-3-3C333.6,488.2,332.3,489.5,332.3,491.2z
		 M263.9,284.7c14-15.3,26.5-16.9,39-16.7c7.7,0.1,6.9-8.1,0.2-10.7c-15.8-6.1-34.9,1.7-45.2,20C254.7,283,257.9,291.3,263.9,284.7z
		 M289.5,419.4c11.7,0,25.6-1.3,39.6-5.5c0.6-0.2,1.5-0.4,2.5-0.7c6.2-1.9,18.5-6.5,22.1-19.2c2.4-8.4,9.9-54.5-19.7-80.7
		c-4.4-3.9-8.9-6.9-13.4-9.2c-8.7-4.5-17.4-6.2-25.7-6.3c-30.5,0-46.7,17.9-50.3,22.7c-19.6,26.2-16.6,52.4-6.6,76.1
		c3.5,8.2,5.5,15,23,19.9c2.4,0.7,10.8,2.2,22.2,2.7C285.2,419.4,287.3,419.4,289.5,419.4z M528.2,508.7c-3.1-1.5-20.6-1.6-28.3,0.2
		l-0.5,0.1l-0.1,0.5c-7.9,36.7-60.9,41.2-84.2,41.3l1.1-58.8c52.6-11.9,69.3-45.5,66.5-61c-2.7-14.9-12.9-28.8-69.3-30
		c-56.3,1.2-66.6,15.1-69.3,30c-2.8,15.4,13.9,49,66.5,61l1.1,58.8c-23.3-0.1-76.4-4.6-84.2-41.3l-0.1-0.5L327,509
		c-7.8-1.8-25.2-1.7-28.3-0.2c-1.2,0.6-1.4,1.2-1.3,1.7c0.1,0.7,0.7,1.1,1.9,1.3c0.8,0.1,2.8,0.3,5.5,0.5c5.7,0.5,14.2,1.2,19.4,2.1
		c4.5,20.4,30.3,42.1,89.1,42.1c0.1,0,0.1,0,0.2,0c58.9,0,84.6-21.6,89.1-42.1c5.2-0.9,13.7-1.6,19.4-2.1c2.7-0.2,4.7-0.4,5.5-0.5
		c1.2-0.2,1.8-0.6,1.9-1.3C529.6,510,529.5,509.3,528.2,508.7z M356.7,486.2c1.7,0,3-1.4,3-3s-1.4-3-3-3c-1.7,0-3,1.4-3,3
		S355,486.2,356.7,486.2z M470.2,480.1c-1.7,0-3,1.4-3,3s1.4,3,3,3c1.7,0,3-1.4,3-3S471.9,480.1,470.2,480.1z M492.5,578.4
		c-9.8,8.4-30.4,34.4-79,33.4c-48.6,1-69.2-25-79-33.4c-4.3-3.7-8.9-6.8-13.3-9.4l-8.4,13.1c0,0,19.8,12.6,39.7,20.8
		c18.4,7.5,37,11.7,59.7,12.3c21.7,0.6,47.8-8.5,61.4-14.1c20-8.2,36.7-18.6,36.7-18.6l-7.9-11.4C499,573.2,495.7,575.6,492.5,578.4
		z M322.3,717.1c0.1-0.2,0.2-0.4,0.4-0.7c0.5-1,1-2,1.5-3c0,0,0,0,0,0c0.5-1,0.9-2.1,1.3-3.1c0.1-0.2,0.2-0.5,0.3-0.7
		c0.8-2.2,1.4-4.4,2-6.7c0.1-0.2,0.1-0.4,0.2-0.7c4.1-18,1.5-39.2-3.8-54.1c-1.1-3.1-4.1-8-13.7-12.2l0,0c-0.6-0.3-1.2-0.5-1.9-0.8
		c0,0,0,0,0,0c-0.6-0.2-1.3-0.5-2-0.7c0,0-0.1,0-0.1,0c-0.7-0.2-1.4-0.5-2.1-0.7c-0.1,0-0.1,0-0.2-0.1c-0.7-0.2-1.4-0.4-2.2-0.6
		c-0.1,0-0.2,0-0.3-0.1c-0.7-0.2-1.5-0.4-2.3-0.6c-0.1,0-0.2-0.1-0.4-0.1c-0.8-0.2-1.5-0.4-2.4-0.5c-0.2,0-0.3-0.1-0.5-0.1
		c-0.8-0.2-1.6-0.3-2.4-0.5c-0.2,0-0.4-0.1-0.6-0.1c-0.8-0.1-1.6-0.3-2.4-0.4c-0.3,0-0.5-0.1-0.8-0.1c-0.8-0.1-1.6-0.2-2.5-0.4
		c-0.3,0-0.6-0.1-1-0.1c-0.8-0.1-1.7-0.2-2.5-0.3c-0.4,0-0.7-0.1-1.1-0.1c-0.8-0.1-1.7-0.2-2.6-0.3c-0.5,0-0.9-0.1-1.3-0.1
		c-0.9-0.1-1.8-0.1-2.7-0.2c-0.5,0-1-0.1-1.5-0.1c-0.9-0.1-1.9-0.1-2.8-0.2c-0.5,0-1.1-0.1-1.6-0.1c-1,0-1.9-0.1-2.9-0.1
		c-0.6,0-1.1-0.1-1.7-0.1c-1.1,0-2.3-0.1-3.5-0.1c-0.5,0-0.9,0-1.4,0c-1.7,0-3.4,0-5.2,0c-39.1,0-49.5,9.7-54.9,19
		c-25.3,44.8-5.7,75.6,0.3,78.6c7.4,3.8,18,4.3,26.3,4.8c5.5,0.3,4.5-0.2,2.6-6.9c-2.8-9.5-7.8-57.1,15.8-91.4
		c-10.6,29.6-17.7,75.5-8.8,96.4c2.9,6.9,40.7,9.3,45-1.4c9.2-22.3,6.9-76.2,1-93.5c16.3,21.1,11.4,77.6,5.5,93.1
		c-2.6,7.3,22.9,3.6,27.9-1.6c0.7-0.8,1.4-1.6,2.1-2.4c0.2-0.2,0.3-0.4,0.5-0.6c0.7-0.8,1.3-1.7,1.9-2.6c0,0,0,0,0,0
		C321.2,719,321.7,718,322.3,717.1z M454.3,688.5c-0.2,3.5-0.7,6.8-1.3,10.1c0,0,0,0,0,0c-1.5,7.1-3.9,13.7-7,19.7c0,0,0,0,0,0
		c-3,5.9-6.6,11.3-10.4,15.8c-0.1,0.1-0.1,0.1-0.2,0.2c-0.4,0.5-0.8,1-1.2,1.4c-0.1,0.1-0.2,0.2-0.3,0.3c-0.4,0.4-0.8,0.9-1.2,1.3
		c-0.1,0.1-0.2,0.2-0.3,0.4c-0.4,0.4-0.8,0.8-1.1,1.2c-0.1,0.1-0.2,0.3-0.4,0.4c-0.4,0.4-0.8,0.8-1.1,1.1c-0.1,0.1-0.2,0.2-0.4,0.3
		c-0.4,0.4-0.8,0.7-1.1,1.1c-0.1,0.1-0.1,0.1-0.2,0.2c-1.2,1.1-2.4,2.1-3.6,3.1c-0.2,0.2-0.4,0.3-0.6,0.5c-0.3,0.2-0.5,0.4-0.8,0.6
		c-0.2,0.2-0.5,0.4-0.7,0.5c-0.2,0.2-0.5,0.3-0.7,0.5c-0.2,0.2-0.5,0.3-0.7,0.5c-0.2,0.2-0.4,0.3-0.7,0.4c-0.2,0.2-0.5,0.3-0.7,0.5
		c-0.2,0.1-0.4,0.3-0.6,0.4c-0.3,0.1-0.5,0.3-0.7,0.4c-0.2,0.1-0.4,0.2-0.6,0.3c-0.3,0.1-0.5,0.3-0.8,0.4c-0.2,0.1-0.3,0.2-0.5,0.2
		c-0.3,0.1-0.5,0.2-0.8,0.4c-0.1,0.1-0.3,0.1-0.4,0.2c-0.4,0.2-0.8,0.3-1.1,0.4c-0.1,0-0.2,0-0.3,0c0,0-0.1,0-0.2,0
		c-0.1,0-0.2,0-0.3,0c-0.1,0-0.2,0-0.3-0.1c-0.1,0-0.2,0-0.3-0.1c-0.2,0-0.3-0.1-0.5-0.1c-0.1,0-0.2-0.1-0.3-0.1
		c-0.2-0.1-0.4-0.1-0.7-0.2c-0.1,0-0.2-0.1-0.3-0.1c-0.3-0.1-0.6-0.2-0.9-0.3c-0.1,0-0.1-0.1-0.2-0.1c-0.3-0.1-0.7-0.3-1-0.4
		c-0.1,0-0.1,0-0.2-0.1c-0.4-0.2-0.8-0.3-1.2-0.5c0,0-0.1,0-0.1-0.1c-0.4-0.2-0.9-0.4-1.4-0.6c0,0,0,0-0.1,0c-0.5-0.2-1-0.5-1.5-0.8
		c0,0,0,0,0,0c-12.3-6.5-32.5-22.8-36.7-56c11.8-4.3,18.5-13.2,19.4-29.1c0.9-0.1,2.2-0.2,3.8-0.4c0,0,0.1,0,0.1,0
		c1.2-0.1,2.6-0.2,4.2-0.3c0,0,0,0,0.1,0c0.8,0,1.6-0.1,2.4-0.1c0.1,0,0.1,0,0.2,0c1.7-0.1,3.5-0.2,5.4-0.2c0,0,0,0,0,0
		c0.9,0,1.9-0.1,2.8-0.1c0,0,0.1,0,0.1,0c2.9-0.1,6-0.2,8.9-0.2c0,0,0,0,0,0c5-0.1,9.8,0,13.7,0.2c0,0,0,0,0,0
		c0.8,0,1.5,0.1,2.2,0.1c0,0,0,0,0,0c1.1,0.1,2.2,0.2,3,0.3c0.2,3.8,0.5,5.9,1,7.8c0.3,1.7,1.4,4.8,2.3,6.6
		C439.9,681.6,443.5,686.6,454.3,688.5z M417.3,741.6c0.2-0.1,0.5-0.3,0.7-0.4c0,0,0,0,0.1,0c8-4.8,20.9-15.9,27-40.7
		c0-0.1,0-0.2,0.1-0.2c0.2-0.9,0.4-1.7,0.6-2.6c0.1-0.3,0.1-0.7,0.2-1c0.1-0.7,0.3-1.4,0.4-2.1c0.2-1.1,0.4-2.2,0.6-3.3
		c-12.3-0.9-15.8-17.1-16.3-19.7c-0.3-1.2,0-1.7-1.4-1.9c-7.6-0.3-25.1-0.3-38.8,0.5c-1.2,0-0.9,1.2-0.9,2.3
		c-0.3,4.7-3.1,14-15.6,21.1c0.2,1.2,0.5,2.3,0.8,3.4c0.3,1.1,0.6,2.2,0.8,3.2c0,0,0,0,0,0c0,0,0,0,0,0c0.2,0.8,0.4,1.5,0.7,2.2
		c0.1,0.3,0.2,0.6,0.3,0.9c0.2,0.7,0.4,1.3,0.7,2c0.1,0.3,0.2,0.7,0.4,1c0.2,0.6,0.5,1.2,0.7,1.8c0.1,0.3,0.3,0.7,0.4,1
		c0.2,0.6,0.5,1.1,0.7,1.7c0.1,0.3,0.3,0.7,0.4,1c0.2,0.5,0.5,1.1,0.7,1.6c0.2,0.3,0.3,0.7,0.5,1c0.3,0.5,0.5,1,0.8,1.5
		c0.2,0.3,0.3,0.6,0.5,0.9c0.3,0.5,0.5,1,0.8,1.4c0.2,0.3,0.3,0.6,0.5,0.9c0.3,0.5,0.6,0.9,0.8,1.4c0.2,0.3,0.4,0.5,0.5,0.8
		c0.3,0.4,0.6,0.9,0.9,1.3c0.2,0.3,0.4,0.5,0.5,0.7c0.3,0.4,0.6,0.8,0.9,1.2c0.2,0.2,0.4,0.5,0.5,0.7c0.3,0.4,0.6,0.8,0.9,1.2
		c0.2,0.2,0.3,0.4,0.5,0.6c0.3,0.4,0.6,0.8,1,1.1c0.2,0.2,0.3,0.3,0.5,0.5c0.3,0.4,0.7,0.8,1,1.1c0.1,0.1,0.2,0.3,0.4,0.4
		c0.4,0.4,0.7,0.8,1.1,1.1c0,0,0,0,0,0c1.4,1.4,2.8,2.6,4.1,3.7c0,0,0.1,0.1,0.1,0.1c0.4,0.3,0.7,0.6,1,0.8c0.1,0.1,0.3,0.2,0.4,0.3
		c0.3,0.2,0.6,0.5,0.9,0.7c0.2,0.1,0.3,0.2,0.5,0.4c0.3,0.2,0.6,0.4,0.9,0.6c0.2,0.1,0.3,0.2,0.5,0.4c0.3,0.2,0.5,0.4,0.8,0.5
		c0.2,0.1,0.4,0.2,0.5,0.3c0.3,0.2,0.5,0.3,0.7,0.5c0.2,0.1,0.4,0.2,0.5,0.3c0.2,0.1,0.5,0.3,0.7,0.4c0.2,0.1,0.4,0.2,0.5,0.3
		c0.2,0.1,0.4,0.2,0.7,0.4c0.2,0.1,0.4,0.2,0.5,0.3c0.2,0.1,0.4,0.2,0.6,0.3c0.2,0.1,0.3,0.2,0.5,0.3c0.2,0.1,0.4,0.2,0.5,0.3
		c0.2,0.1,0.3,0.2,0.5,0.2c0.2,0.1,0.3,0.1,0.5,0.2c0.2,0.1,0.3,0.1,0.5,0.2c0.1,0.1,0.3,0.1,0.4,0.2c0.2,0.1,0.3,0.1,0.4,0.2
		c0.1,0,0.2,0.1,0.3,0.1c0.1,0.1,0.3,0.1,0.4,0.2c0.1,0,0.2,0.1,0.3,0.1c0.1,0.1,0.3,0.1,0.4,0.1c0.1,0,0.1,0,0.2,0.1
		c0.2,0.1,0.3,0.1,0.5,0.2c0.2-0.1,0.4-0.2,0.6-0.3c0.1,0,0.2-0.1,0.3-0.1c0.1-0.1,0.3-0.1,0.4-0.2c0.1-0.1,0.2-0.1,0.3-0.2
		c0.1-0.1,0.2-0.1,0.4-0.2c0.1-0.1,0.3-0.1,0.4-0.2c0.1-0.1,0.2-0.1,0.3-0.2c0.2-0.1,0.3-0.2,0.5-0.3c0.1-0.1,0.2-0.1,0.3-0.2
		c0.2-0.1,0.4-0.2,0.6-0.3C417.1,741.7,417.2,741.7,417.3,741.6z"/>
	<path fill="#5B6781" d="M141.9,290.2c-5.1-7-18.6-34.9-27.8-50c27.2-37.4,49.2-103.1,47-106.7c0,0,39.5,44.7,50.1,83.8
		c0,4.2-3.5,17.5-3.5,17.5s-10.1,5.4-9.9,17.9c-3.5,0.1-10.8-2.1-17.9-5.2c6.1,4.8,37.8,51.1,18.6,71.4
		C186.6,331.5,159.7,314.6,141.9,290.2z M460.1,372c0-31.4,10.6-101.5,40.1-134.4c36.2,7.1,70.8,16.8,89.9,24.9
		c17,33.2,24.1,77.5,24.1,102c0,42.1-12.4,75.5-76.6,75.5c-9.7,0-19.7,0-28.3-0.9c0,0,0,0-0.1,0c-10.2-20.7-27.5-32.8-44.6-39.8
		c0,0,0,0,0,0C461.8,391,460.1,381.7,460.1,372z M524,268c12.5-0.2,25,1.4,39,16.7c6,6.6,9.2-1.7,6-7.4
		c-10.3-18.4-29.4-26.1-45.2-20C517.1,259.9,516.3,268.1,524,268z M473.2,394.1c3.6,12.7,15.9,17.3,22.1,19.2c1,0.3,1.9,0.5,2.5,0.7
		c14,4.2,28,5.5,39.6,5.5c2.2,0,4.3,0,6.3-0.1c11.5-0.5,19.8-2,22.2-2.7c17.5-4.9,19.5-11.7,23-19.9c10-23.7,13-49.9-6.6-76.1
		c-3.6-4.8-11.9-11.6-22.7-16.5c-8.1-3.6-17.5-6.3-27.6-6.3c-8.3,0-17.1,1.8-25.7,6.3c-4.5,2.3-9,5.3-13.4,9.2
		C463.3,339.6,470.9,385.7,473.2,394.1z M721.5,202.4c4.1-47.2-3.6-130.2-5.8-133.1c-14.8,34-73.3,72.7-100,147.9
		c0,4.2,3.5,17.5,3.5,17.5s10.1,5.4,9.9,17.9c3.5,0.1,10.8-2.1,17.9-5.2c-6.1,4.8-37.8,51.1-18.6,71.4c12,12.7,38.8-4.3,56.6-28.6
		c5.1-7,17.5-33.1,26.7-48.3C688.4,226.4,655.1,183.2,721.5,202.4z M431.1,652.6c0.4,0,0.9,0,1.3,0c11.4-0.4,22.1-1.8,31.9-3.9
		c0,0,0.1,0,0.1,0c19.7-4.3,36.1-11.3,48.3-18.2c0,0,0,0,0,0c3.9-2.2,7.4-4.4,10.5-6.5c0,0,0,0,0,0c0.7-0.5,1.4-1,2-1.4
		c0.1-0.1,0.3-0.2,0.4-0.3c0.5-0.4,1-0.8,1.5-1.1c0.2-0.1,0.3-0.2,0.5-0.4c0.5-0.3,0.9-0.7,1.3-1c0.1-0.1,0.3-0.2,0.4-0.4
		c0.5-0.4,1.1-0.9,1.6-1.3c3.6-3,10.8-9.4,8.2-17c-2.8-8.2-10.8-27.1-11.9-26c-11,10.7-56.5,36-97.7,42.8
		C432,621,434.2,648.2,431.1,652.6z M293.1,618c0.6,0.5,1.3,1.1,2,1.6c0.1,0.1,0.3,0.2,0.4,0.3c15.2,11.9,48.4,30.5,93.9,32.5
		c1.2,0.1,2.3,0.1,3.5,0.1c-3.1-4.4-1.6-30.9,0.9-34c-41.2-6.9-85.9-32.8-97-43.5c-1.1-1.1-2.8,1.3-8.7,26.6
		C286.3,609.9,289.6,615,293.1,618z"/>
</g>
</svg>
